<svg xmlns="http://www.w3.org/2000/svg" xmlns:xlink="http://www.w3.org/1999/xlink" viewBox="0 0 414.58 362.6"><defs><style>.cls-1{fill:#2f3c4c;}.cls-2{fill:#76b2f2;}.cls-3{fill:url(#Adsız_degrade_13);}.cls-4{fill:url(#Yeni_Degrade_Renk_Örneği_2);}.cls-5{fill:#fff;opacity:0.25;}.cls-6{fill:#ccc;}</style><linearGradient id="Adsız_degrade_13" x1="-177.73" y1="84.72" x2="-276.68" y2="-12.67" gradientTransform="translate(497.74)" gradientUnits="userSpaceOnUse"><stop offset="0" stop-color="#a689f4"/><stop offset="0.24" stop-color="#8b94f0"/><stop offset="0.53" stop-color="#719eec"/><stop offset="0.79" stop-color="#61a4ea"/><stop offset="1" stop-color="#5ca6e9"/></linearGradient><linearGradient id="Yeni_Degrade_Renk_Örneği_2" x1="38.58" y1="147.98" x2="368.06" y2="147.98" gradientUnits="userSpaceOnUse"><stop offset="0" stop-color="#a689f4"/><stop offset="1" stop-color="#5ca6e9"/></linearGradient></defs><g id="katman_2" data-name="katman 2"><g id="katman_2-2" data-name="katman 2"><path class="cls-1" d="M74,262.66v-18c0-2-.18-4.62,2-5.11s5.16-1.65,6.91.68c1.48,2,2.41,1.31,4,.47,8.88-4.65,14.38-4.14,21.72,2.44,2.41,2.16,3.36.48,4.83-.77,9.24-7.82,26.11-5.62,30.17,7.77a30,30,0,0,1,.89,8.89c0,7.14-.12,14.29-.05,21.44,0,3.83-1.54,6.2-5.47,6.13s-4.83-2.79-4.81-6.19c.05-7.15.09-14.3,0-21.44-.12-6.81-3.48-10.95-8.83-11.26-5.76-.32-10.56,3.94-11,10.58-.44,7.12-.26,14.29-.2,21.43,0,3.72-.59,6.93-5.14,6.84s-5.18-3.29-5.15-7c0-7.15.12-14.3-.1-21.44s-3.06-10-10-10.31c-4.37-.2-9.17,4.25-9.55,9.86-.52,7.61-.36,15.27-.41,22.91,0,2.29-.36,4.15-2.7,5.31-3.66,1.81-7,0-7.14-4.35-.17-6.31,0-12.62,0-18.94Z"/><path class="cls-1" d="M155,252.82c0-9,0-17.93,0-26.89,0-3.72.75-6.79,5.29-6.76,4.7,0,5,3.34,5,6.94-.09,4.32,0,8.64-.08,12.95,0,3.09.74,3.79,3.74,2.17,9.84-5.32,19.74-4.16,27.1,2.83s9.51,20,4.92,29.53a24,24,0,0,1-24.44,13.62,20.25,20.25,0,0,1-8.76-3.34c-1.58-1-2.56-1.51-3.89.57a4.81,4.81,0,0,1-6.21,1.7c-2.33-1-2.64-3.15-2.63-5.44C155,271.41,155,262.11,155,252.82Zm10,9.44c-.1,8.36,6,15,13.87,15.07S193,270.84,193,262.48s-5.85-14.59-13.59-14.84S165.14,254,165,262.26Z"/><path class="cls-1" d="M339.09,257c5.51-5.3,10.12-9.74,14.73-14.16,4.78-4.6,8.44-5.75,10.54-2.87,3.52,4.82-1.87,6.5-3.92,9.17a33.24,33.24,0,0,1-6.38,6.27c-3.68,2.76-2.91,5.14-.26,8.08,4.21,4.68,8.21,9.57,12.26,14.41,1.9,2.27,3.62,4.83.83,7.41s-6,1.94-8.35-.76c-4.18-4.73-8.08-9.69-12.15-14.5-1-1.18-1.79-3.57-3.54-2.77-2,.9-4.08,2.44-4.16,5.14-.08,3,0,6,0,9,0,3.42-1.6,5.43-5.06,5.38s-4.93-2.14-4.92-5.54q0-27.9,0-55.78c0-3.74,1.53-6.18,5.49-6.17s4.65,2.87,4.62,6.19c-.07,8.47,0,16.93,0,25.4C338.79,252.44,338.94,254,339.09,257Z"/><path class="cls-1" d="M277.31,262.59c-.28,14-10.85,24.73-24.16,24.51-14-.23-24.25-10.89-24-25.05.25-14.9,10.82-24.5,26.64-24.2C267.71,238.07,277.57,249.4,277.31,262.59Zm-10.22-.53c0-8.58-6-14.83-14.08-14.72-7.68.11-13.81,6.9-13.8,15.28,0,8.18,6.44,14.81,14.29,14.75S267.11,270.74,267.09,262.06Z"/><path class="cls-1" d="M0,262.34c0-6,0-11.95,0-17.93,0-2.49.55-4.66,3.24-5.54,2.3-.75,4.56-.29,5.73,1.75,1.33,2.34,2.4,1.28,3.89.44,14.33-8.05,29.71.07,29.53,16.7-.08,7.63,0,15.27,0,22.9,0,3.56-1.34,5.91-5.1,5.89s-5.25-2.19-5.2-5.83c.09-7.14.17-14.28,0-21.41-.18-7.32-3.74-11.4-9.65-11.58-6.42-.19-11.67,4.53-12,11.44s-.21,13.94-.15,20.91c0,3.63-1,6.37-5.07,6.47S0,283.85,0,280.26c0-6,0-11.95,0-17.92Z"/><path class="cls-1" d="M393.3,270.17c3-7.68,5.83-15.39,8.94-23,1.08-2.64,1.51-5.8,4.78-7.14,2.26-.92,4.51-1.44,6.46.14s.85,3.67.1,5.5q-11.18,27.14-22.41,54.25c-1.64,3.93-5.28,5.6-8.36,3.94-3.62-1.95-3-5.08-1.21-7.67,5.55-8,4.91-15.61.44-24-4.34-8.16-7.45-17-11.14-25.5-1.3-3-2-5.93,1.7-7.58s6.38,0,7.89,3.64q5.68,13.72,11.38,27.44Z"/><path class="cls-1" d="M300.51,287.11c-5-.34-10.69-1.85-14.95-6.64-2.13-2.38-3.55-5.3-.7-7.91,2.65-2.43,5.16-1.64,7.63,1.15a12.39,12.39,0,0,0,14,3.46,5.21,5.21,0,0,0,3.54-4.42c.2-2.42-1.45-3.67-3.45-4.27-4-1.18-8-2.05-12-3.26-7.75-2.38-11.19-7.37-10.39-14.78.68-6.39,6-11.25,13.21-12.12,6.86-.84,13.29-.07,18.55,4.9,2.42,2.29,4.35,5.14,1.32,8.15-2.65,2.62-5.37,1.69-7.72-1-2.95-3.32-6.79-3.89-10.94-3.18-2.32.4-4.1,1.61-4.43,4.06-.35,2.61,1.39,4,3.59,4.69,2.69.84,5.44,1.46,8.19,2.09,10.3,2.37,14.94,7.15,14.3,14.79-.68,8.12-7.87,13.94-17.63,14.26Z"/><path class="cls-1" d="M221.51,252.73c0,9.11,0,18.23,0,27.34,0,3.57-.86,6.46-5,6.51-4.44.06-5.33-3-5.32-6.73q.06-26.85,0-53.7c0-3.65.65-6.94,5.07-7,4.94-.12,5.19,3.5,5.15,7.27-.07,8.78,0,17.56,0,26.35Z"/><path class="cls-1" d="M53.16,262.41q0-9.2,0-18.4c0-3.44,1.39-4.84,5.16-4.82s5.12,1.57,5.13,4.94q0,18.39,0,36.8c0,3.63-1.93,5.71-5.49,5.63s-4.74-2.45-4.7-5.74c.05-6.14,0-12.27,0-18.41Z"/><path class="cls-1" d="M58.57,225.23c3.61.44,5.78,2.27,5.84,6.07a6.09,6.09,0,0,1-6.64,6.36c-3.75-.34-5.67-2.62-5.57-6.28C52.31,227.42,54.7,225.5,58.57,225.23Z"/><path class="cls-2" d="M292.87,82.36c-.47,3.42.84,7.78-3.73,7.89s-4.06-4.07-3.91-7.17c1-22.17-23.45-40-45.38-30.44a13.65,13.65,0,0,1-2.81,1,3.73,3.73,0,0,1-4.54-2.16c-1-2.29.66-3.42,2.33-4.25,11.22-5.63,22.77-6.11,34.18-1C284.73,53.18,291.57,66.26,292.87,82.36Z"/><path class="cls-2" d="M264.36,28.2c2.47-7.66,5.1-16,7.9-24.35C273,1.78,274.68.56,277,1.33a3.53,3.53,0,0,1,2.5,4.73q-4.07,12.54-8.38,25a3.2,3.2,0,0,1-4.4,2.1C264.68,32.47,263.78,31.08,264.36,28.2Z"/><path class="cls-2" d="M290,45.73a3.74,3.74,0,0,1-3.54-2.08c-.93-1.69-.41-3.19.84-4.52q8.84-9.42,17.68-18.85c1.53-1.64,3.2-2.49,5.22-1,2.28,1.68,1.89,3.9.36,5.65-4.59,5.22-9.33,10.32-14.12,15.35C294.41,42.38,292.85,45.14,290,45.73Z"/><path class="cls-2" d="M332.5,52.5c.1,2.52-1.36,3.59-3.12,4.29-7.51,3-15.06,6-22.57,9-2.52,1-4.7.93-5.68-1.89-.9-2.58.81-4,3-4.85,7.68-3.08,15.37-6.11,23-9.25C330.36,48.49,331.78,49.93,332.5,52.5Z"/><path class="cls-2" d="M223.68,37.11a4.08,4.08,0,0,1-2.31,3.3,2.89,2.89,0,0,1-3.67-.54c-6.07-6.58-12-13.26-16.64-21-1-1.6-.92-3.32.78-4.38,2-1.27,3.92-.42,5.29,1.24q7.89,9.59,15.63,19.31A7.93,7.93,0,0,1,223.68,37.11Z"/><path class="cls-2" d="M234.13,3.56A3,3,0,0,1,237,.09c2.14-.28,4.11,0,4.65,2.55,1.7,8.1,3.37,16.21,4.95,24.34.4,2-.41,3.6-2.7,4s-4.05-.32-4.57-2.7C237.59,20.16,235.93,12.06,234.13,3.56Z"/><path class="cls-2" d="M322.15,83.8c4.15,0,8.29,0,12.43,0,2.42,0,4.55.76,4.68,3.35s-1.94,3.57-4.39,3.57c-8.45,0-16.9,0-25.35,0-2.66,0-4.66-1.11-4.57-4,.09-3.08,2.6-2.91,4.78-2.91,4.14,0,8.28,0,12.42,0Z"/><path class="cls-3" d="M292.87,82.36c-.47,3.42.84,7.78-3.73,7.89s-4.06-4.07-3.91-7.17c1-22.17-23.45-40-45.38-30.44a13.65,13.65,0,0,1-2.81,1,3.73,3.73,0,0,1-4.54-2.16c-1-2.29.66-3.42,2.33-4.25,11.22-5.63,22.77-6.11,34.18-1C284.73,53.18,291.57,66.26,292.87,82.36Z"/><path class="cls-3" d="M264.36,28.2c2.47-7.66,5.1-16,7.9-24.35C273,1.78,274.68.56,277,1.33a3.53,3.53,0,0,1,2.5,4.73q-4.07,12.54-8.38,25a3.2,3.2,0,0,1-4.4,2.1C264.68,32.47,263.78,31.08,264.36,28.2Z"/><path class="cls-3" d="M290,45.73a3.74,3.74,0,0,1-3.54-2.08c-.93-1.69-.41-3.19.84-4.52q8.84-9.42,17.68-18.85c1.53-1.64,3.2-2.49,5.22-1,2.28,1.68,1.89,3.9.36,5.65-4.59,5.22-9.33,10.32-14.12,15.35C294.41,42.38,292.85,45.14,290,45.73Z"/><path class="cls-3" d="M332.5,52.5c.1,2.52-1.36,3.59-3.12,4.29-7.51,3-15.06,6-22.57,9-2.52,1-4.7.93-5.68-1.89-.9-2.58.81-4,3-4.85,7.68-3.08,15.37-6.11,23-9.25C330.36,48.49,331.78,49.93,332.5,52.5Z"/><path class="cls-3" d="M223.68,37.11a4.08,4.08,0,0,1-2.31,3.3,2.89,2.89,0,0,1-3.67-.54c-6.07-6.58-12-13.26-16.64-21-1-1.6-.92-3.32.78-4.38,2-1.27,3.92-.42,5.29,1.24q7.89,9.59,15.63,19.31A7.93,7.93,0,0,1,223.68,37.11Z"/><path class="cls-3" d="M234.13,3.56A3,3,0,0,1,237,.09c2.14-.28,4.11,0,4.65,2.55,1.7,8.1,3.37,16.21,4.95,24.34.4,2-.41,3.6-2.7,4s-4.05-.32-4.57-2.7C237.59,20.16,235.93,12.06,234.13,3.56Z"/><path class="cls-3" d="M322.15,83.8c4.15,0,8.29,0,12.43,0,2.42,0,4.55.76,4.68,3.35s-1.94,3.57-4.39,3.57c-8.45,0-16.9,0-25.35,0-2.66,0-4.66-1.11-4.57-4,.09-3.08,2.6-2.91,4.78-2.91,4.14,0,8.28,0,12.42,0Z"/><path class="cls-2" d="M118.67,183.59q89.27-.09,178.54.06c7.35,0,14-2.34,20.21-5.47,13.61-6.85,22.11-21.45,22.42-36.3-33.29-23.6-64.08-24.23-93.34-10.75l-2.15.41a99.07,99.07,0,0,1-13,15.47c-2.63,2.49-5.09,6-10.12,6.48,4.12-4.43,8.4-7.87,11.18-12.25a65.72,65.72,0,0,0,7.28-15.58l-.22-1c-33.78,2.9-47.62,16.52-53.47,34.44-49.15.38-80.94-19.66-106.76-46.73a54.79,54.79,0,0,0-4,9.74C65.62,153,88.15,183.62,118.67,183.59Z"/><path class="cls-4" d="M118.67,183.59q89.27-.09,178.54.06c7.35,0,14-2.34,20.21-5.47,13.61-6.85,22.11-21.45,22.42-36.3-33.29-23.6-64.08-24.23-93.34-10.75l-2.15.41a99.07,99.07,0,0,1-13,15.47c-2.63,2.49-5.09,6-10.12,6.48,4.12-4.43,8.4-7.87,11.18-12.25a65.72,65.72,0,0,0,7.28-15.58l-.22-1c-33.78,2.9-47.62,16.52-53.47,34.44-49.15.38-80.94-19.66-106.76-46.73a54.79,54.79,0,0,0-4,9.74C65.62,153,88.15,183.62,118.67,183.59Z"/><path class="cls-2" d="M228.37,65.06c-17.19-20.68-39.12-29.41-65.58-24-21,4.27-35.29,16.73-43.84,35.24a79.91,79.91,0,0,1,27.47,3.29c31,9.47,42.49,34.36,43.44,38.55.17.77.62,2.77-.4,3.71-1.3,1.2-4.2-.07-4.89-.39a105.23,105.23,0,0,0-71.2-34.17,9.86,9.86,0,0,1-3.58,1.7c-13.88,3.85-24.21,11.48-30.57,23.34C105,139.39,136.83,159.43,186,159.05c5.85-17.92,19.69-31.54,53.47-34.44l.22,1c4-12.67,3.71-26-.18-39.61A57.37,57.37,0,0,0,228.37,65.06Z"/><path class="cls-2" d="M338.9,132.4c-4.3-18.93-20.76-32.84-39.6-33.64-23.05-1-39.87,9.57-52,28.35-1,1.5-2,3-3,4.43l2.15-.41c29.26-13.48,60.05-12.85,93.34,10.75A38.92,38.92,0,0,0,338.9,132.4Z"/><path class="cls-2" d="M184.57,121.45c.69.32,3.59,1.59,4.89.39,1-.94.57-2.94.4-3.71-1-4.19-12.45-29.08-43.44-38.55A79.91,79.91,0,0,0,119,76.29c-1,2.17-1.93,4.42-2.77,6.74a9.05,9.05,0,0,1-2.81,4.25,105.23,105.23,0,0,1,71.2,34.17Z"/><path class="cls-5" d="M184.57,121.45c.69.32,3.59,1.59,4.89.39,1-.94.57-2.94.4-3.71-1-4.19-12.45-29.08-43.44-38.55A79.91,79.91,0,0,0,119,76.29c-1,2.17-1.93,4.42-2.77,6.74a9.05,9.05,0,0,1-2.81,4.25,105.23,105.23,0,0,1,71.2,34.17Z"/><path class="cls-6" d="M226.93,325.47a.74.74,0,0,1,.72-.72h4.2a.74.74,0,0,1,.71.72v11a7.62,7.62,0,0,1,3.15-.72c4,0,7.53,2.61,7.53,7.94a7.67,7.67,0,0,1-7.5,7.95,6.55,6.55,0,0,1-5.07-2.38l-.45,1.25c-.15.41-.42.75-.8.75h-1.77a.74.74,0,0,1-.72-.72ZM235,346.74a3,3,0,0,0,3.06-3.1,3,3,0,1,0-3.06,3.1Z"/><path class="cls-6" d="M244.41,337.09a.66.66,0,0,1,.64-1h4.32a.72.72,0,0,1,.64.41l2.91,7H253l3-7a.68.68,0,0,1,.64-.41h4.28a.65.65,0,0,1,.64,1L250,362.14a.75.75,0,0,1-.64.46h-4.24a.68.68,0,0,1-.64-1l5.63-11.88Z"/><path class="cls-6" d="M273.4,325.66a.89.89,0,0,1,.9-.91h4.43a.93.93,0,0,1,.91.91v9.95l8.4-10.48a1.11,1.11,0,0,1,.72-.38h4.77a.88.88,0,0,1,.68,1.4l-8.86,11.09L295,349.8a.89.89,0,0,1-.72,1.41h-5.22a1.07,1.07,0,0,1-.68-.27l-8.74-11.88v11.27a.92.92,0,0,1-.91.91H274.3a.89.89,0,0,1-.9-.91Z"/><path class="cls-6" d="M296.29,336.83a.72.72,0,0,1,.72-.72h4.05a.72.72,0,0,1,.72.72v7c0,1.55.87,2.91,2.42,2.91a2.48,2.48,0,0,0,2.27-2.69v-7.22c0-.61.41-.72.79-.72h3.86a.72.72,0,0,1,.72.72v13.69a.74.74,0,0,1-.72.72h-1.78a.83.83,0,0,1-.72-.53l-.56-1.4a6.45,6.45,0,0,1-5.11,2.31c-4.5,0-6.66-3.63-6.66-7.95Z"/><path class="cls-6" d="M315.93,336.83a.72.72,0,0,1,.72-.72h1.78a.69.69,0,0,1,.68.45l.68,1.67a5.21,5.21,0,0,1,4.12-2.5c2.08,0,3.56.75,3,1.62l-1.85,3a.65.65,0,0,1-.84.34,2.83,2.83,0,0,0-.91-.19,2,2,0,0,0-2,2.16v7.83c0,.46-.23.72-.83.72h-3.86a.74.74,0,0,1-.72-.72Z"/><path class="cls-6" d="M328.19,349.58l1.32-2.61a.66.66,0,0,1,.8-.31,8.33,8.33,0,0,0,3.4,1,.67.67,0,0,0,.72-.68c0-.38-.23-.91-2.15-1.59-3-1-4.24-2.73-4.24-5.07,0-2.54,1.81-4.58,5.9-4.58a10,10,0,0,1,5,1.17c.34.23.61.57.38,1l-1.4,2.57a.66.66,0,0,1-.79.23,8.7,8.7,0,0,0-3.22-.87c-.49,0-.83.11-.83.53s.41.75,1.7,1.21c3.07,1.06,5.18,2.27,5.18,5.3,0,2.64-2.11,4.8-6.39,4.8a9.09,9.09,0,0,1-5.15-1.25C328.19,350.15,328,349.92,328.19,349.58Z"/><path class="cls-6" d="M347.56,341.56a7.17,7.17,0,0,1,2.92.6c0-1.48-.23-2.23-2.05-2.23a15.65,15.65,0,0,0-3.78.57c-.57.18-.83-.23-.91-.8l-.34-2.38a.8.8,0,0,1,.57-1,25.87,25.87,0,0,1,5-.57c4.69,0,6.4,2,6.4,6.43v8.36a.74.74,0,0,1-.72.72H353a.69.69,0,0,1-.68-.49l-.53-1a6.33,6.33,0,0,1-4.58,1.89,4.9,4.9,0,0,1-5.22-5C342,343.71,344.12,341.56,347.56,341.56Zm1,6.35a1.63,1.63,0,1,0,0-3.25,1.61,1.61,0,0,0-1.63,1.59A1.64,1.64,0,0,0,348.55,347.91Z"/><path class="cls-6" d="M359.86,340.91h-1a.71.71,0,0,1-.68-.72v-3.36a.68.68,0,0,1,.68-.72h1v-4.2a.74.74,0,0,1,.72-.72h4.05a.71.71,0,0,1,.68.72v4.2h2.8a.69.69,0,0,1,.72.72v3.36a.72.72,0,0,1-.72.72h-2.8v4.73c0,.83.57.91,1,.91a7.91,7.91,0,0,0,1.48-.26.65.65,0,0,1,.83.49l.83,3.14a.74.74,0,0,1-.49.87,19.58,19.58,0,0,1-4.58.83c-2.87,0-4.54-1.82-4.54-5.26Z"/><path class="cls-6" d="M376.25,338.49l-8.37-12.64a.7.7,0,0,1,.61-1.1h4.92a.74.74,0,0,1,.6.34l5.26,7.76,5.26-7.76a.72.72,0,0,1,.61-.34h4.92a.7.7,0,0,1,.6,1.1l-8.47,12.6v12.07a.74.74,0,0,1-.72.72H377a.72.72,0,0,1-.72-.72Z"/><path class="cls-6" d="M404.89,324.41a14.66,14.66,0,0,1,9.24,3.56.66.66,0,0,1,.07,1l-3,3.18a.79.79,0,0,1-1,0,6.94,6.94,0,0,0-5-1.82,7.59,7.59,0,0,0,0,15.18,8.85,8.85,0,0,0,3.37-.61v-2.19h-2.39a.69.69,0,0,1-.71-.68v-3.75a.69.69,0,0,1,.71-.72h7.61a.71.71,0,0,1,.68.72l0,10.18a.91.91,0,0,1-.3.6,19.14,19.14,0,0,1-9.39,2.46,13.59,13.59,0,0,1,0-27.17Z"/></g></g></svg>